<svg width="44" height="44" xmlns="http://www.w3.org/2000/svg"><path d="M16.74 28.961c5.785 4.78 11.532 8.416 15.9 10.274a20.86 20.86 0 01-8.914 2.693c-11.202.783-20.894-7.336-21.65-18.134a18.93 18.93 0 011.472-8.76c2.521 3.928 7.23 9 13.192 13.927zm9.573 3.693l-.205-.14c-.312-.213-.623-.43-.932-.647l-.106-.075a84.407 84.407 0 01-2.128-1.559l-.278-.214a89.487 89.487 0 01-2.988-2.38l-.298-.246a97.29 97.29 0 01-2.147-1.85l-.278-.25a79.66 79.66 0 01-.764-.69l-.319-.292c-.24-.222-.479-.445-.718-.67l-.284-.267c-.267-.255-.534-.511-.799-.77l-.156-.15C6.227 14.934 1.805 7.867 3.714 5.63c.928-1.087 3.206-.862 6.285.399a19.807 19.807 0 0110.606-3.98c11.02-.77 20.579 7.58 21.353 18.651a20.05 20.05 0 01-2.309 10.856c1.73 2.889 2.313 5.136 1.38 6.23-1.493 1.75-6.487.1-12.692-3.805l-.088-.056m2.263-17.886l-5.279-4.588a1.53 1.53 0 00-2.154.15l-4.588 5.279a1.53 1.53 0 00.15 2.153l5.278 4.588a1.53 1.53 0 002.154-.15l4.588-5.28a1.53 1.53 0 00-.15-2.153v.001z" fill="#0EA5E9" fill-rule="nonzero"/></svg>